<svg id="Layers_1_" enable-background="new 0 0 64 64" height="512" viewBox="0 0 64 64" width="512" xmlns="http://www.w3.org/2000/svg"><path d="m51 8c-.552 0-1 .448-1 1v23h-32v-7c0-.552-.448-1-1-1s-1 .448-1 1v7.101c-.744.151-1.416.482-2 .924v-24.025c0-.552-.448-1-1-1s-1 .448-1 1v28c0 2.757 2.243 5 5 5h5v13c0 .421.264.797.66.94.395.143.839.024 1.108-.3l4.232-5.078 4.232 5.078c.194.233.477.36.768.36.114 0 .229-.02.34-.06.396-.143.66-.519.66-.94v-13h17c.552 0 1-.448 1-1s-.448-1-1-1h-17v-2h17c.552 0 1-.448 1-1s-.448-1-1-1h-18-10-6c-.552 0-1 .448-1 1s.448 1 1 1h5v2h-5c-1.654 0-3-1.346-3-3s1.346-3 3-3h34c.552 0 1-.448 1-1v-24c0-.552-.448-1-1-1zm-27 30h8v14.238l-3.232-3.878c-.19-.228-.471-.36-.768-.36s-.578.132-.768.36l-3.232 3.878z"/><path d="m18 9c0-.552-.448-1-1-1s-1 .448-1 1v10c0 .552.448 1 1 1s1-.448 1-1z"/><circle cx="17" cy="22" r="1"/></svg>