<svg id="Layer_1" enable-background="new 0 0 509.768 509.768" height="512" viewBox="0 0 509.768 509.768" width="512" xmlns="http://www.w3.org/2000/svg"><path d="m495.236 377.316c-1.405-2.184-2.86-4.326-4.38-6.409-16.871-37.08-41.099-65.767-69.329-83.264-9.198-12.363-19.424-23.097-30.441-32.007l7.279-19.335c10.488-27.862.206-58.54-23.094-74.922l48.784-129.589c3.112-8.27-1.067-17.498-9.338-20.611-8.271-3.115-17.498 1.068-20.611 9.337l-48.783 129.589c-28.32-3.049-56.278 13.233-66.767 41.095l-13.248 35.192c-57.567-44.753-142.947-12.597-156.04 59.739-29.297 17.332-54.458 46.606-71.824 84.773-1.504 2.06-2.943 4.178-4.334 6.338h-17.11c-8.837 0-16 7.164-16 16s7.163 16 16 16h25.352l38.634 49.523c19.955 25.582 51.963 40.854 85.619 40.854h178.557c33.656 0 65.664-15.273 85.619-40.854l38.634-49.523h25.352c8.837 0 16-7.164 16-16 .001-8.341-6.383-15.183-14.531-15.926zm-57.808-13.101c5.121 3.171 9.949 6.818 14.423 10.895h-38.091c-5.897-3.708-11.714-7.327-17.448-10.851 43.359 0 40.205.021 41.116-.044zm-37.899-52.37c1.556 2.264 3.07 4.598 4.551 6.985-24.25-3.43-46.891.61-72.866 7.467-9.524-5.212-18.706-10.056-27.568-14.562 35.092-12.5 63.181-17.7 95.883.11zm-36.334-118.385c6.994 8.555 9.387 20.503 5.222 31.567l-4.881 12.966c-4.845-2.356-9.787-4.391-14.809-6.101zm-54.69 9.014c4.165-11.064 13.842-18.468 24.741-20.287l-16.356 43.45c-5.892-.339-11.134-.259-17.218.304zm1.62 54.96c14.681 0 29.026 3.802 42.495 10.906-22.813.697-51.935 8.815-88.46 24.682-12.033-5.228-23.256-9.607-33.72-13.164 39.888-17.381 64.54-22.424 79.685-22.424zm-76.906-13.408c-18.071 7.192-36.212 15.706-53.552 24.508-10.704-.703-21.181.157-31.131 2.215 17.257-29.811 54.11-41.039 84.683-26.723zm-60.719 56.259c25.106 0 76.294 13.82 179.826 74.825h-23.205c-87.061-38.205-149.831-57.572-186.639-57.572-9.186 0-18.224.975-26.998 2.834 17.449-12.983 36.919-20.087 57.016-20.087zm-30.018 49.253c16.38 0 46.576 5.144 101.881 25.572h-167.915c17.784-16.204 41.205-25.572 66.034-25.572zm262.069 89.545c-13.939 17.869-36.515 28.537-60.389 28.537h-178.557c-23.874 0-46.449-10.668-60.389-28.537l-23.279-29.84h345.893z"/></svg>