<svg id="_x33_0" enable-background="new 0 0 64 64" height="512" viewBox="0 0 64 64" width="512" xmlns="http://www.w3.org/2000/svg"><g><path d="m55 31.023v-5.508l2.157-1.541c3.032-2.166 4.843-5.684 4.843-9.411 0-6.375-5.187-11.563-11.563-11.563h-1.462c-.914-1.207-2.348-2-3.975-2h-1.1c-3.254 0-5.9 2.646-5.9 5.9 0 2.68 1.803 4.971 4.344 5.667l-2.121 5.658c-.148.395-.223.808-.223 1.229 0 1.211.615 2.307 1.62 2.947-.522-.255-1.104-.4-1.713-.4h-.001c-1.043 0-2.023.406-2.761 1.144-.739.737-1.145 1.718-1.145 2.761 0 1.449.131 2.907.391 4.334l2.863 15.744c.386 2.121 1.842 3.807 3.747 4.569v12.447h18v-25.552c-.001-3.404-2.655-6.193-6.001-6.425zm-15-24.123c0-2.15 1.75-3.9 3.9-3.9h1.1c1.654 0 3 1.346 3 3 0 .551-.449 1-1 1s-1-.449-1-1v-1h-2v1c0 1.654 1.346 3 3 3s3-1.346 3-3c0-.342-.035-.677-.101-1h.538c5.273 0 9.563 4.291 9.563 9.564 0 3.082-1.497 5.991-4.005 7.782l-.995.711v-1.643l1-1c.645-.645 1-1.502 1-2.414 0-1.304-.836-2.416-2-2.829v-.171c0-2.206-1.794-4-4-4h-4.849c-.982 0-1.971-.088-2.939-.261-1.861-.334-3.212-1.948-3.212-3.839zm2.096 12.026 2.257-6.019c.598.058 1.199.093 1.798.093h4.849c1.103 0 2 .897 2 2v2h1c.551 0 1 .449 1 1 0 .372-.151.737-.414 1l-1 1c-.378.378-.586.88-.586 1.414v9.586h-4v-2h2v-2h-4.585c-.287 0-.567-.068-.835-.167-.313-.567-.786-1.04-1.387-1.351-.116-.286-.193-.587-.193-.896v-3.204l-1.169-.584c-.513-.256-.831-.771-.831-1.344 0-.181.032-.358.096-.528zm3.551 11.016c.152-.304.237-.634.291-.971.159.018.317.029.477.029h.585v2.718c-.459.714-.877 1.45-1.236 2.214l-.704-2.815zm-3.647-7.323v.002c-.006-.004-.013-.008-.019-.012zm-.779 23.008-2.863-15.744c-.237-1.31-.358-2.648-.358-3.977 0-.509.198-.988.558-1.348s.838-.558 1.348-.558c.821 0 1.547.523 1.807 1.303l.469 1.407 1.077.538c.457.229.741.688.741 1.2 0 .208-.049.415-.142.6l-.918 1.837 3 11.999-.835 1.669 1.789.895.945-1.889 1.525-1.78 2.906 2.906-4.503 3.464c-.714.548-1.603.851-2.504.851-1.987 0-3.686-1.419-4.042-3.373zm3.779 15.373v-10.023c.089.004.173.023.263.023 1.34 0 2.663-.45 3.724-1.267l9.601-7.385c.145-.112.279-.234.413-.358v19.01zm12.368-20.237-3.499 2.692-3.199-3.199 3.09-3.605-1.519-1.301-4.74 5.529-.886-3.545c.441-1.53 1.089-2.984 1.931-4.334h6.007c2.451 0 4.447 1.995 4.447 4.448 0 1.29-.61 2.529-1.632 3.315z"/><circle cx="15" cy="20" r="1"/><circle cx="21" cy="20" r="1"/><path d="m21.789 23.658.105-.211-1.789-.895-.105.212c-.381.762-1.147 1.236-2 1.236s-1.619-.474-2-1.236l-.105-.211-1.789.895.105.211c.722 1.444 2.174 2.341 3.789 2.341s3.067-.897 3.789-2.342z"/><path d="m30.271 33.313c-1.259-.839-2.653-1.39-4.143-1.638l-3.33-.555-.623-2.308c1.74-1.071 3.037-2.784 3.561-4.811h.338c2.206 0 4-1.794 4-4 0-.957-.352-1.826-.915-2.515l.545-2.179c.196-.787.296-1.595.296-2.403 0-5.461-4.443-9.904-9.904-9.904h-4.192c-5.461 0-9.904 4.443-9.904 9.904 0 .808.1 1.616.295 2.402l.563 2.248c-.529.679-.858 1.521-.858 2.446 0 2.206 1.794 4 4 4h.263c.525 2.027 1.821 3.74 3.561 4.811l-.623 2.308-3.33.555c-1.49.248-2.884.799-4.144 1.638-2.959 1.974-4.727 5.277-4.727 8.834v20.854h34v-20.854c0-3.557-1.768-6.86-4.729-8.833zm-6.677-.033-1.198 4.192-2.784-1.67 2.73-2.73zm2.481-11.28h-.075v-4h.075c1.103 0 2 .897 2 2s-.897 2-2 2zm-10.171-17h4.192c4.359 0 7.904 3.545 7.904 7.904 0 .645-.08 1.29-.236 1.917l-.356 1.425c-.419-.15-.864-.246-1.333-.246h-.198c-.325-1.163-1.319-2.049-2.578-2.175l-3.224-.322c-2.323-.233-4.075-2.169-4.075-4.503h-2c0 .923.19 1.804.535 2.602-1.967.79-3.531 2.396-4.266 4.398h-.269c-.495 0-.964.102-1.402.267l-.362-1.446c-.156-.627-.236-1.272-.236-1.917 0-4.359 3.545-7.904 7.904-7.904zm-7.904 15c0-1.103.897-2 2-2h.023l-.023 4c-1.103 0-2-.897-2-2zm4 2v-4.872c.491-1.798 1.877-3.231 3.634-3.799 1.053 1.19 2.541 1.993 4.241 2.163l3.224.322c.513.051.9.479.9.995v5.191c0 3.309-2.691 6-6 6s-5.999-2.691-5.999-6zm6 8c.811 0 1.593-.123 2.331-.349l.553 2.051-2.884 2.884-2.884-2.884.553-2.051c.738.226 1.52.349 2.331.349zm-4.343 3.071 2.73 2.73-2.784 1.67-1.198-4.192zm-10.657 15.929h4v12h-4zm26 12v-12h4v12zm4-14h-4v-6h-2v20h-18v-20h-2v6h-4v-4.854c0-2.888 1.435-5.567 3.837-7.17 1.022-.681 2.154-1.128 3.364-1.329l.219-.037 1.976 6.917 5.604-3.361 5.604 3.362 1.976-6.917.219.037c1.21.201 2.341.648 3.363 1.329 2.403 1.602 3.838 4.282 3.838 7.169z"/></g></svg>