<svg id="Capa_1" enable-background="new 0 0 512.016 512.016" height="512" viewBox="0 0 512.016 512.016" width="512" xmlns="http://www.w3.org/2000/svg"><g><path d="m499.933 107.293-37.227-37.209 44.733-44.419c5.878-5.837 5.912-15.334.074-21.213-5.836-5.879-15.334-5.911-21.213-.074l-44.813 44.498-36.596-36.579c-13.285-13.279-34.02-15.868-51.621-6.457l-67.902 35.478c-17.591 9.293-2.845-2.976-274.74 268.794-13.86 13.853-14.002 35.279-1.368 47.908l144.81 144.742c0-.45 7.341 9.232 22.698 9.232 8.99 0 18.165-3.556 25.214-10.6l252.095-251.979c13.741-13.733 15.008-19.164 52.319-90.508 9.417-17.599 6.826-38.331-6.463-51.614zm-20.008 37.497c-.87 1.585 1.941-3.714-35.566 68.005-6.549 12.14 11.343-7.421-263.586 267.381-3.018 3.016-5.905 1.367-5.495 1.367-155.357-155.283-145.371-144.627-145.281-146.427.161-3.132-15.545 13.589 253.934-255.766 9.591-9.585 10.544-8.944 83.296-46.955 6.951-3.609 13.046-2.291 16.457 1.12l36.516 36.5-21.942 21.788c-36.694-20.533-82.033 6.009-82.033 48.047 0 30.648 24.837 55.057 55.104 55.057 42.32 0 68.474-45.546 48.137-81.885l21.952-21.798 37.306 37.289c3.873 3.869 4.355 10.411 1.201 16.277zm-83.493-4.94c0 22.25-27.102 33.482-42.856 17.734-9.807-9.801-9.809-25.666-.001-35.47 15.747-15.738 42.857-4.523 42.857 17.736z"/><path d="m262.085 171.145-159.413 159.339c-5.858 5.856-5.861 15.354-.005 21.214 5.854 5.856 15.352 5.863 21.214.005l159.413-159.339c5.858-5.856 5.861-15.354.005-21.214-5.857-5.86-15.355-5.861-21.214-.005z"/><path d="m262.085 284.522-102.698 102.65c-5.858 5.856-5.861 15.354-.005 21.214 5.854 5.856 15.352 5.863 21.214.005l102.698-102.65c5.858-5.856 5.861-15.354.005-21.214-5.857-5.861-15.355-5.86-21.214-.005z"/></g></svg>